g Road1mesh
v 0.1574485 0 0.6249998
v 0.1574487 5.011722E-20 0.7881697
v 7.264316E-07 0 0.625
v 0.1103832 3.650784E-07 0.9578093
v 0.1574491 5.011722E-20 1.107315
v 0.15745 0 1.875
v 2.179295E-06 0 1.875
v 0.1574515 0 3.125
v 0.1574528 0 4.279793
v 3.632158E-06 0 3.125
v 0.07449849 0 4.375
v 5.085021E-06 0 4.375
v 4.684616 0 -5.444885E-06
v 4.864532 0 -5.654E-06
v 4.806139 0 1.826159
v 4.626223 0 1.826159
v 4.684622 0 4.999995
v 4.864538 0 4.999994
v 0.1574515 0 3.125
v 3.632158E-06 0 3.125
v 2.179295E-06 0 1.875
v 0.15745 0 1.875
v 4.626223 0 1.826159
v 4.684622 0 4.999995
v 0.1574528 0 4.279793
v 0.1574529 0 4.375
v 5.811452E-06 0 5
v 0.07449849 0 4.375
v 5.085021E-06 0 4.375
v 0.1574491 5.011722E-20 1.107315
v 0.1574487 5.011722E-20 0.7881697
v 0.1103832 3.650784E-07 0.9578093
v 0.1574485 0 0.6249998
v 4.684616 0 -5.444885E-06
v 7.264316E-07 0 0.625
v 0 0 0
v 4.864532 0 -5.654E-06
v 5 0 -5.811452E-06
v 5.000003 0 2.499994
v 4.806139 0 1.826159
v 4.864538 0 4.999994
v 5.000006 0 4.999994

vn 0 1 0
vn 0 1 0
vn 0 1 0
vn 0 1 0
vn 0 1 0
vn 0 1 0
vn 0 1 0
vn 0 1 0
vn 0 1 0
vn 0 1 0
vn 0 1 0
vn 0 1 0
vn 0 1 0
vn 0 1 0
vn 0 1 0
vn 0 1 0
vn 0 1 0
vn 0 1 0
vn 0 1 0
vn 0 1 0
vn 0 1 0
vn 0 1 0
vn 0 1 0
vn 0 1 0
vn 0 1 0
vn 0 1 0
vn 0 1 0
vn 0 1 0
vn 0 1 0
vn 0 1 0
vn 0 1 0
vn 0 1 0
vn 0 1 0
vn 0 1 0
vn 0 1 0
vn 0 1 0
vn 0 1 0
vn 0 1 0
vn 0 1 0
vn 0 1 0
vn 0 1 0
vn 0 1 0

vt 0.009445071 0.005708615
vt 0.009445071 0.005708615
vt 0.009445071 0.005708615
vt 0.009445071 0.005708615
vt 0.009445071 0.005708615
vt 0.009445071 0.005708615
vt 0.009445071 0.005708615
vt 0.009445071 0.005708615
vt 0.009445071 0.005708615
vt 0.009445071 0.005708615
vt 0.009445071 0.005708615
vt 0.009445071 0.005708615
vt 0.02699483 0.006992066
vt 0.02699483 0.006992066
vt 0.02699483 0.006992066
vt 0.02699483 0.006992066
vt 0.02699483 0.006992066
vt 0.02699483 0.006992066
vt 0.9517931 0.6254652
vt 0.9822412 0.6254652
vt 0.9822412 0.3846929
vt 0.9517931 0.3846929
vt 0.08756056 0.3752867
vt 0.07626772 0.9866242
vt 0.9517931 0.8478996
vt 0.9517931 0.8662381
vt 0.9822412 0.9866242
vt 0.9678351 0.8662381
vt 0.9822412 0.8662381
vt 0.9517931 0.2368228
vt 0.9517931 0.1753494
vt 0.9608945 0.2080251
vt 0.9517931 0.1439202
vt 0.07626772 0.02353379
vt 0.9822412 0.1439202
vt 0.9822412 0.02353379
vt 0.04147255 0.02353379
vt 0.01527381 0.02353379
vt 0.01527381 0.5050792
vt 0.05276534 0.3752867
vt 0.04147255 0.9866242
vt 0.01527381 0.9866242

usemtl PolygonCity_Mat_Road_01
usemap PolygonCity_Mat_Road_01
f 2/2/2 1/1/1 3/3/3
f 2/2/2 3/3/3 4/4/4
f 3/3/3 5/5/5 4/4/4
f 3/3/3 6/6/6 5/5/5
f 3/3/3 7/7/7 6/6/6
f 9/9/9 8/8/8 10/10/10
f 9/9/9 10/10/10 11/11/11
f 10/10/10 12/12/12 11/11/11
f 14/14/14 13/13/13 15/15/15
f 15/15/15 13/13/13 16/16/16
f 17/17/17 15/15/15 16/16/16
f 18/18/18 15/15/15 17/17/17
f 20/20/20 19/19/19 21/21/21
f 21/21/21 19/19/19 22/22/22
f 22/22/22 19/19/19 23/23/23
f 24/24/24 23/23/23 19/19/19
f 24/24/24 19/19/19 25/25/25
f 25/25/25 26/26/26 24/24/24
f 27/27/27 24/24/24 26/26/26
f 26/26/26 28/28/28 27/27/27
f 26/26/26 25/25/25 28/28/28
f 28/28/28 29/29/29 27/27/27
f 30/30/30 22/22/22 23/23/23
f 23/23/23 31/31/31 30/30/30
f 30/30/30 31/31/31 32/32/32
f 23/23/23 33/33/33 31/31/31
f 23/23/23 34/34/34 33/33/33
f 34/34/34 35/35/35 33/33/33
f 36/36/36 35/35/35 34/34/34
f 38/38/38 37/37/37 39/39/39
f 39/39/39 37/37/37 40/40/40
f 41/41/41 39/39/39 40/40/40
f 42/42/42 39/39/39 41/41/41
